<svg width="310" height="277" viewBox="0 0 310 277" fill="none" xmlns="http://www.w3.org/2000/svg">
<g clip-path="url(#clip0_209_364)">
<path d="M156.645 143.875C196.455 143.875 228.728 111.667 228.728 71.9373C228.728 32.2074 196.455 0 156.645 0C116.834 0 84.5613 32.2074 84.5613 71.9373C84.5613 111.667 116.834 143.875 156.645 143.875Z" fill="#FF6B00"/>
<path d="M156.156 67.2904C151.234 67.2904 146.478 66.786 141.971 65.8516C136.958 64.8098 131.855 67.1002 129.303 71.5239L55.7693 198.638H200.69L165.701 66.6454C162.61 67.0671 159.42 67.2904 156.164 67.2904H156.156Z" fill="#009658"/>
<path d="M183.009 71.5239C180.449 67.1002 175.345 64.818 170.341 65.8516C168.824 66.1658 167.267 66.4304 165.692 66.6454L200.682 198.638H256.551L183.017 71.5239H183.009Z" fill="#19A35A"/>
<path d="M170.556 57.7069H139.817V67.2903H170.556V57.7069Z" fill="#8DC1FF"/>
<path d="M201.345 96.0487L184.915 64.694C182.321 59.7411 178.609 55.9127 171.815 57.5581C171.202 57.5333 168.534 58.8894 167.863 59.4186C158.882 66.4966 148.442 63.6521 144.631 59.278C143.91 58.4512 142.485 56.723 141.507 56.2186C136.536 53.6636 130.206 57.4837 127.223 62.5689L107.802 95.6767C104.629 101.084 105.068 108.088 109.376 112.652C111.083 114.455 113.063 115.513 115.118 116.117C115.317 116.183 115.549 116.249 115.822 116.315C115.839 116.315 115.864 116.323 115.88 116.332C119.634 117.324 129.526 118.688 143.197 111.147C145.451 109.899 148.02 109.237 150.596 109.328C153.248 109.419 155.899 110.312 155.891 113.52L155.858 118.606C155.816 125.651 161.019 131.885 168.054 132.505C175.088 133.125 181.484 128.032 182.537 121.21L182.562 121.276C182.562 121.276 182.562 121.194 182.562 121.07C182.603 120.755 182.636 120.441 182.661 120.119C182.959 118.49 184.169 115.712 188.892 115.629C191.17 115.728 193.498 115.257 195.669 114.124C202.239 110.693 204.783 102.598 201.345 96.0405V96.0487Z" fill="white"/>
<path d="M48.1053 200.101H26.5631V219.946H48.1053V200.101Z" fill="#00BC5E"/>
<path d="M30.0679 198.448H287.356C289.295 198.448 290.861 200.019 290.861 201.945V220.773H26.5631V201.945C26.5631 200.011 28.1373 198.448 30.0679 198.448Z" fill="#00D16D"/>
<path d="M44.1117 203.516C44.1117 201.904 45.048 200.523 46.3985 199.845C46.1251 199.291 45.9511 198.679 45.9511 198.018C45.9511 196.976 46.3488 196.033 46.9951 195.306C46.9205 195 46.8708 194.677 46.8708 194.347C46.8708 192.064 48.7184 190.22 51.0052 190.22C51.9746 190.22 52.8529 190.568 53.5571 191.122C54.1288 189.526 55.6451 188.385 57.4347 188.385C58.313 188.385 59.1249 188.666 59.7961 189.129C60.1026 187.153 61.8011 185.631 63.8642 185.631C66.151 185.631 67.9987 187.475 67.9987 189.757C67.9987 190.965 67.4684 192.04 66.6398 192.792C68.8852 193.478 70.7909 194.611 72.158 196.025C74.5524 195.116 76.2593 192.825 76.2593 190.113C76.2593 187.012 74.0305 184.432 71.0808 183.887C70.8571 183.688 70.6334 183.498 70.3932 183.308C70.3932 183.308 70.3932 183.291 70.3932 183.283C70.3932 179.777 67.5512 176.941 64.0382 176.941C62.3148 176.941 60.7572 177.627 59.6138 178.735C59.4149 178.694 59.2244 178.653 59.0255 178.62C58.0064 176.478 55.8191 174.99 53.2837 174.99C51.0135 174.99 49.0333 176.18 47.9065 177.966C46.7796 176.18 44.7994 174.99 42.5292 174.99C40.955 174.99 39.5216 175.56 38.4113 176.503C37.3591 174.444 35.2214 173.038 32.7524 173.038C29.2393 173.038 26.3974 175.874 26.3974 179.38C26.3974 179.728 26.4306 180.067 26.4886 180.397C25.7097 180.058 24.8563 179.868 23.9532 179.868C21.4842 179.868 19.3465 181.282 18.2943 183.333C17.184 182.39 15.7506 181.82 14.1764 181.82C10.8208 181.82 8.0866 184.416 7.84632 187.699C4.557 187.938 1.95537 190.675 1.95537 194.016C1.95537 196.43 3.30589 198.53 5.2944 199.597C5.03755 200.292 4.88841 201.036 4.88841 201.821C4.88841 202.045 4.8967 202.26 4.92156 202.475C2.1045 203.128 0 205.642 0 208.651C0 212.157 2.84191 214.993 6.35494 214.993C8.06174 214.993 9.61112 214.315 10.7545 213.224C11.3842 213.827 12.1465 214.307 12.9833 214.613C12.801 215.2 12.7099 215.82 12.7099 216.465C12.7099 219.971 15.5518 222.807 19.0648 222.807C20.1585 222.807 21.1942 222.526 22.0973 222.038C23.0998 224.213 25.3038 225.734 27.864 225.734C30.8467 225.734 33.3406 223.684 34.0283 220.914C34.0946 220.889 34.1609 220.856 34.2272 220.831C35.2132 221.459 36.3814 221.832 37.6408 221.832C41.1538 221.832 43.9957 218.995 43.9957 215.489C43.9957 214.944 43.9212 214.406 43.7886 213.902C46.6968 213.323 48.8841 210.76 48.8841 207.684C48.8841 207.651 48.8841 207.618 48.8841 207.576C48.677 207.609 48.4616 207.643 48.2462 207.643C45.9594 207.643 44.1117 205.799 44.1117 203.516Z" fill="#009B54"/>
<path d="M72.1663 196.025C70.7992 194.611 68.8852 193.478 66.6482 192.792C67.4767 192.04 68.007 190.965 68.007 189.757C68.007 187.475 66.1593 185.631 63.8725 185.631C61.8012 185.631 60.1109 187.153 59.8044 189.129C59.1333 188.666 58.3213 188.385 57.443 188.385C55.6534 188.385 54.1371 189.534 53.5654 191.122C52.8612 190.568 51.9829 190.22 51.0135 190.22C48.7267 190.22 46.8791 192.064 46.8791 194.347C46.8791 194.677 46.9288 194.991 47.0034 195.306C46.3654 196.033 45.9594 196.976 45.9594 198.018C45.9594 198.679 46.1334 199.291 46.4068 199.845C45.0563 200.523 44.12 201.904 44.12 203.516C44.12 204.434 44.4266 205.269 44.932 205.956C43.1506 206.41 41.825 208.015 41.825 209.941C41.825 212.223 43.6726 214.067 45.9594 214.067C48.2462 214.067 50.0938 212.223 50.0938 209.941C50.0938 209.701 50.0607 209.462 50.0193 209.23C51.4029 208.701 52.3889 207.378 52.3889 205.815C52.3889 205.608 52.364 205.402 52.3309 205.203C53.2754 207.518 55.5374 209.156 58.197 209.156C61.5526 209.156 64.2951 206.559 64.5271 203.277C64.6928 203.293 64.8668 203.301 65.0408 203.301C68.5538 203.301 71.3957 200.465 71.3957 196.959C71.3957 196.736 71.3874 196.521 71.3626 196.306C71.6443 196.24 71.9177 196.141 72.1828 196.042L72.1663 196.025Z" fill="#008445"/>
<path d="M290.869 219.946H26.5631V228.215H290.869V219.946Z" fill="#009E56"/>
<path d="M82.0756 198.448H71.3046C65.3225 185.871 59.6884 171.128 56.3328 149.324C54.3525 136.466 53.9548 124.882 54.2697 115.124L59.9204 113.802C60.5086 123.964 61.8757 135.598 64.6016 148.274C69.0426 168.92 75.7787 185.383 82.0756 198.456V198.448Z" fill="#BCB37D"/>
<path d="M58.6278 114.736C58.6278 114.736 24.5663 114.322 26.8365 151.465L58.6278 114.736Z" fill="#009B54"/>
<path d="M58.9261 115.521C58.9261 115.521 42.0735 85.9774 11.1025 106.699L58.9261 115.521Z" fill="#00C472"/>
<path d="M53.1677 117.68C53.1677 117.68 49.895 83.8442 87.1712 82.9843L53.1677 117.68Z" fill="#00C472"/>
<path d="M54.5514 114.885C54.5514 114.885 69.5729 84.3734 101.745 103.185L54.5514 114.885Z" fill="#009B54"/>
<path d="M51.7924 113.074C51.7924 113.074 84.1387 102.416 93.2113 138.508L51.7924 113.074Z" fill="#00C472"/>
<path d="M61.5609 131.067C65.2216 131.067 68.1892 128.105 68.1892 124.452C68.1892 120.798 65.2216 117.837 61.5609 117.837C57.9001 117.837 54.9325 120.798 54.9325 124.452C54.9325 128.105 57.9001 131.067 61.5609 131.067Z" fill="#FFBF40"/>
<path d="M51.0715 133.522C54.7322 133.522 57.6998 130.561 57.6998 126.907C57.6998 123.254 54.7322 120.292 51.0715 120.292C47.4107 120.292 44.4431 123.254 44.4431 126.907C44.4431 130.561 47.4107 133.522 51.0715 133.522Z" fill="#F7DD43"/>
<path d="M55.3965 126.56C59.0573 126.56 62.0249 123.598 62.0249 119.945C62.0249 116.292 59.0573 113.33 55.3965 113.33C51.7358 113.33 48.7682 116.292 48.7682 119.945C48.7682 123.598 51.7358 126.56 55.3965 126.56Z" fill="#FFEA52"/>
<path d="M260.146 200.564H270.094C272.536 189.294 272.886 173.827 271.466 155.608C270.629 144.865 268.763 135.458 266.664 127.646H261.861C263.309 135.951 264.406 145.584 264.605 156.32C264.928 173.8 262.753 188.843 260.146 200.564Z" fill="#BCB37D"/>
<path d="M263.075 128.159C263.075 128.159 290.457 121.415 295.65 151.787L263.075 128.159Z" fill="#009B54"/>
<path d="M262.986 128.851C262.986 128.851 270.986 101.861 299.876 112.733L262.986 128.851Z" fill="#00C472"/>
<path d="M268.036 129.501C268.036 129.501 264.276 101.607 234.062 107.934L268.036 129.501Z" fill="#00C472"/>
<path d="M266.389 127.509C266.389 127.509 248.51 105.743 226.124 126.961L266.389 127.509Z" fill="#009B54"/>
<path d="M268.276 125.53C268.276 125.53 240.181 123.031 239.694 153.835L268.276 125.53Z" fill="#00C472"/>
<path d="M262.547 142.024C259.516 142.024 257.059 139.572 257.059 136.546C257.059 133.521 259.516 131.069 262.547 131.069C265.579 131.069 268.036 133.521 268.036 136.546C268.036 139.572 265.579 142.024 262.547 142.024Z" fill="#FFBF40"/>
<path d="M271.466 142.024C268.435 142.024 265.978 139.572 265.978 136.546C265.978 133.521 268.435 131.069 271.466 131.069C274.497 131.069 276.955 133.521 276.955 136.546C276.955 139.572 274.497 142.024 271.466 142.024Z" fill="#F7DD43"/>
<path d="M266.664 137.231C263.632 137.231 261.175 134.779 261.175 131.754C261.175 128.729 263.632 126.276 266.664 126.276C269.695 126.276 272.152 128.729 272.152 131.754C272.152 134.779 269.695 137.231 266.664 137.231Z" fill="#FFEA52"/>
<path d="M229.088 198.994H241.101C244.051 185.384 244.474 166.705 242.759 144.702C241.748 131.729 239.494 120.368 236.959 110.933H231.159C232.907 120.963 234.233 132.597 234.473 145.562C234.863 166.672 232.236 184.838 229.088 198.994Z" fill="#DDD7AC"/>
<path d="M232.625 111.553C232.625 111.553 265.693 103.409 271.965 140.088L232.625 111.553Z" fill="#009B54"/>
<path d="M232.518 112.388C232.518 112.388 242.179 79.7933 277.069 92.9239L232.518 112.388Z" fill="#00C472"/>
<path d="M238.616 113.174C238.616 113.174 234.075 79.4874 197.586 87.1276L238.616 113.174Z" fill="#00C472"/>
<path d="M236.627 110.768C236.627 110.768 215.035 84.4816 188 110.106L236.627 110.768Z" fill="#009B54"/>
<path d="M238.906 108.378C238.906 108.378 204.977 105.36 204.389 142.561L238.906 108.378Z" fill="#00C472"/>
<path d="M231.987 128.297C235.648 128.297 238.616 125.336 238.616 121.682C238.616 118.029 235.648 115.067 231.987 115.067C228.327 115.067 225.359 118.029 225.359 121.682C225.359 125.336 228.327 128.297 231.987 128.297Z" fill="#FFBF40"/>
<path d="M242.759 128.297C246.419 128.297 249.387 125.336 249.387 121.682C249.387 118.029 246.419 115.067 242.759 115.067C239.098 115.067 236.13 118.029 236.13 121.682C236.13 125.336 239.098 128.297 242.759 128.297Z" fill="#F7DD43"/>
<path d="M236.959 122.509C240.619 122.509 243.587 119.548 243.587 115.894C243.587 112.241 240.619 109.279 236.959 109.279C233.298 109.279 230.33 112.241 230.33 115.894C230.33 119.548 233.298 122.509 236.959 122.509Z" fill="#FFEA52"/>
<path d="M290.869 198.448H185.644V219.946H290.869V198.448Z" fill="#3AD679"/>
<path d="M145.649 162.122H172.339C183.424 162.122 192.429 171.1 192.429 182.172V198.134H125.568V182.172C125.568 171.109 134.564 162.122 145.658 162.122H145.649Z" fill="#B2B2B2"/>
<path d="M132.973 140.223H133.904C134.582 140.223 135.125 140.774 135.125 141.441V155.129C135.125 155.806 134.573 156.347 133.904 156.347H132.973C129.835 156.347 127.295 153.812 127.295 150.681V145.89C127.295 142.759 129.835 140.223 132.973 140.223Z" fill="#B2B2B2"/>
<path d="M186.236 156.339H185.305C184.627 156.339 184.084 155.788 184.084 155.12V141.432C184.084 140.756 184.636 140.214 185.305 140.214H186.236C189.373 140.214 191.914 142.75 191.914 145.881V150.672C191.914 153.803 189.373 156.339 186.236 156.339Z" fill="#B2B2B2"/>
<path d="M148.189 107H170.034C178.325 107 185.061 113.722 185.061 121.996V123.124H133.172V121.996C133.172 113.722 139.908 107 148.199 107H148.189Z" fill="#C6C6C6"/>
<path d="M132.186 133.384H185.052V151.457C185.052 157.936 179.78 163.187 173.298 163.187H143.94C137.448 163.187 132.186 157.927 132.186 151.457V133.384Z" fill="#C6C6C6"/>
<path d="M153.578 141.631C154.387 141.631 155.043 140.976 155.043 140.169C155.043 139.362 154.387 138.707 153.578 138.707C152.769 138.707 152.114 139.362 152.114 140.169C152.114 140.976 152.769 141.631 153.578 141.631Z" fill="black"/>
<path d="M163.858 141.631C164.667 141.631 165.323 140.976 165.323 140.169C165.323 139.362 164.667 138.707 163.858 138.707C163.049 138.707 162.394 139.362 162.394 140.169C162.394 140.976 163.049 141.631 163.858 141.631Z" fill="black"/>
<path d="M158.804 145.818C157.104 145.818 155.902 143.932 155.848 143.85L156.679 143.336C156.942 143.76 157.846 144.843 158.804 144.843C159.464 144.843 160.115 144.338 160.739 143.336L161.571 143.85C160.757 145.159 159.817 145.818 158.795 145.818H158.804Z" fill="black"/>
<path d="M173.65 144.076C174.055 144.076 174.383 143.749 174.383 143.345C174.383 142.941 174.055 142.614 173.65 142.614C173.246 142.614 172.918 142.941 172.918 143.345C172.918 143.749 173.246 144.076 173.65 144.076Z" fill="#878787"/>
<path d="M171.444 147.008C171.848 147.008 172.176 146.681 172.176 146.278C172.176 145.874 171.848 145.547 171.444 145.547C171.04 145.547 170.712 145.874 170.712 146.278C170.712 146.681 171.04 147.008 171.444 147.008Z" fill="#878787"/>
<path d="M175.847 147.008C176.252 147.008 176.58 146.681 176.58 146.278C176.58 145.874 176.252 145.547 175.847 145.547C175.443 145.547 175.115 145.874 175.115 146.278C175.115 146.681 175.443 147.008 175.847 147.008Z" fill="#878787"/>
<path d="M143.786 144.076C144.191 144.076 144.519 143.749 144.519 143.345C144.519 142.941 144.191 142.614 143.786 142.614C143.382 142.614 143.054 142.941 143.054 143.345C143.054 143.749 143.382 144.076 143.786 144.076Z" fill="#878787"/>
<path d="M141.58 147.008C141.985 147.008 142.312 146.681 142.312 146.278C142.312 145.874 141.985 145.547 141.58 145.547C141.176 145.547 140.848 145.874 140.848 146.278C140.848 146.681 141.176 147.008 141.58 147.008Z" fill="#878787"/>
<path d="M145.992 147.008C146.397 147.008 146.725 146.681 146.725 146.278C146.725 145.874 146.397 145.547 145.992 145.547C145.588 145.547 145.26 145.874 145.26 146.278C145.26 146.681 145.588 147.008 145.992 147.008Z" fill="#878787"/>
<path d="M188.216 121.654H130.993C128.95 121.654 127.295 123.306 127.295 125.344V131.642C127.295 133.68 128.95 135.333 130.993 135.333H188.216C190.258 135.333 191.914 133.68 191.914 131.642V125.344C191.914 123.306 190.258 121.654 188.216 121.654Z" fill="#D8D8D8"/>
<path d="M129.745 148.281H132.186" stroke="#878787" stroke-width="3" stroke-miterlimit="10"/>
<path d="M185.061 147.794H187.502" stroke="#878787" stroke-width="3" stroke-miterlimit="10"/>
<path d="M27.458 204.848C27.342 205.799 26.4058 206.46 26.4058 206.46C26.4058 206.46 25.6601 205.584 25.7844 204.641C25.9086 203.698 26.8366 203.029 26.8366 203.029C26.8366 203.029 27.5823 203.905 27.458 204.848Z" fill="#16AD00"/>
<path d="M27.7894 205.468C26.8365 205.352 25.9666 206.088 25.9666 206.088C25.9666 206.088 26.6294 207.022 27.5822 207.138C28.535 207.254 29.405 206.518 29.405 206.518C29.405 206.518 28.7422 205.584 27.7894 205.468Z" fill="#16AD00"/>
<path d="M26.4968 206.154C26.4968 206.154 27.7396 205.972 28.5599 206.444" stroke="#1FCE00" stroke-width="3" stroke-miterlimit="10"/>
<path d="M21.0947 210.479C22.7284 210.479 24.0527 209.157 24.0527 207.527C24.0527 205.896 22.7284 204.575 21.0947 204.575C19.4611 204.575 18.1368 205.896 18.1368 207.527C18.1368 209.157 19.4611 210.479 21.0947 210.479Z" fill="#FF0000"/>
<path d="M25.1878 210.578C26.8214 210.578 28.1457 209.256 28.1457 207.626C28.1457 205.996 26.8214 204.674 25.1878 204.674C23.5542 204.674 22.2299 205.996 22.2299 207.626C22.2299 209.256 23.5542 210.578 25.1878 210.578Z" fill="#FF0000"/>
<path d="M23.1413 209.255C24.7749 209.255 26.0992 207.933 26.0992 206.303C26.0992 204.673 24.7749 203.351 23.1413 203.351C21.5076 203.351 20.1833 204.673 20.1833 206.303C20.1833 207.933 21.5076 209.255 23.1413 209.255Z" fill="#FF0000"/>
<path d="M21.4013 213.158C23.0349 213.158 24.3592 211.836 24.3592 210.206C24.3592 208.576 23.0349 207.254 21.4013 207.254C19.7677 207.254 18.4434 208.576 18.4434 210.206C18.4434 211.836 19.7677 213.158 21.4013 213.158Z" fill="#FF0000"/>
<path d="M24.8812 213.158C26.5149 213.158 27.8391 211.836 27.8391 210.206C27.8391 208.576 26.5149 207.254 24.8812 207.254C23.2476 207.254 21.9233 208.576 21.9233 210.206C21.9233 211.836 23.2476 213.158 24.8812 213.158Z" fill="#FF0000"/>
<path d="M22.9921 209.941C23.8112 209.941 24.4752 209.279 24.4752 208.461C24.4752 207.644 23.8112 206.981 22.9921 206.981C22.173 206.981 21.509 207.644 21.509 208.461C21.509 209.279 22.173 209.941 22.9921 209.941Z" fill="#FFF200"/>
<path d="M16.6455 180.745C17.5983 180.811 18.3109 181.712 18.3109 181.712C18.3109 181.712 17.474 182.498 16.5212 182.431C15.5684 182.365 14.8558 181.464 14.8558 181.464C14.8558 181.464 15.6927 180.678 16.6455 180.745Z" fill="#16AD00"/>
<path d="M17.2503 180.381C17.184 181.332 17.9711 182.167 17.9711 182.167C17.9711 182.167 18.866 181.456 18.9405 180.505C19.0151 179.554 18.2197 178.719 18.2197 178.719C18.2197 178.719 17.3249 179.43 17.2503 180.381Z" fill="#16AD00"/>
<path d="M18.0126 181.629C18.0126 181.629 17.764 180.406 18.1866 179.562" stroke="#1FCE00" stroke-width="3" stroke-miterlimit="10"/>
<path d="M19.6697 189.898C21.3033 189.898 22.6276 188.576 22.6276 186.946C22.6276 185.316 21.3033 183.994 19.6697 183.994C18.0361 183.994 16.7118 185.316 16.7118 186.946C16.7118 188.576 18.0361 189.898 19.6697 189.898Z" fill="#FF0000"/>
<path d="M19.5536 185.805C21.1872 185.805 22.5115 184.483 22.5115 182.853C22.5115 181.223 21.1872 179.901 19.5536 179.901C17.92 179.901 16.5957 181.223 16.5957 182.853C16.5957 184.483 17.92 185.805 19.5536 185.805Z" fill="#FF0000"/>
<path d="M18.3357 187.922C19.9693 187.922 21.2936 186.6 21.2936 184.97C21.2936 183.34 19.9693 182.018 18.3357 182.018C16.7021 182.018 15.3778 183.34 15.3778 184.97C15.3778 186.6 16.7021 187.922 18.3357 187.922Z" fill="#FF0000"/>
<path d="M22.3292 189.443C23.9628 189.443 25.2871 188.122 25.2871 186.491C25.2871 184.861 23.9628 183.539 22.3292 183.539C20.6956 183.539 19.3713 184.861 19.3713 186.491C19.3713 188.122 20.6956 189.443 22.3292 189.443Z" fill="#FF0000"/>
<path d="M22.147 185.979C23.7806 185.979 25.1049 184.657 25.1049 183.027C25.1049 181.396 23.7806 180.075 22.147 180.075C20.5134 180.075 19.1891 181.396 19.1891 183.027C19.1891 184.657 20.5134 185.979 22.147 185.979Z" fill="#FF0000"/>
<path d="M20.5065 186.475C21.3256 186.475 21.9896 185.812 21.9896 184.995C21.9896 184.177 21.3256 183.515 20.5065 183.515C19.6874 183.515 19.0234 184.177 19.0234 184.995C19.0234 185.812 19.6874 186.475 20.5065 186.475Z" fill="#FFF200"/>
<path d="M46.7548 182.837C46.6388 183.787 45.7025 184.449 45.7025 184.449C45.7025 184.449 44.9568 183.572 45.0811 182.63C45.2054 181.687 46.1334 181.017 46.1334 181.017C46.1334 181.017 46.8791 181.894 46.7548 182.837Z" fill="#16AD00"/>
<path d="M47.0862 183.457C46.1334 183.341 45.2634 184.077 45.2634 184.077C45.2634 184.077 45.9263 185.011 46.8791 185.127C47.8319 185.243 48.7019 184.507 48.7019 184.507C48.7019 184.507 48.0391 183.572 47.0862 183.457Z" fill="#16AD00"/>
<path d="M45.802 184.151C45.802 184.151 47.0448 183.969 47.8651 184.441" stroke="#1FCE00" stroke-width="3" stroke-miterlimit="10"/>
<path d="M40.3915 188.468C42.0251 188.468 43.3494 187.146 43.3494 185.516C43.3494 183.885 42.0251 182.564 40.3915 182.564C38.7579 182.564 37.4336 183.885 37.4336 185.516C37.4336 187.146 38.7579 188.468 40.3915 188.468Z" fill="#FF0000"/>
<path d="M44.4845 188.567C46.1181 188.567 47.4424 187.245 47.4424 185.615C47.4424 183.984 46.1181 182.663 44.4845 182.663C42.8509 182.663 41.5266 183.984 41.5266 185.615C41.5266 187.245 42.8509 188.567 44.4845 188.567Z" fill="#FF0000"/>
<path d="M42.438 187.244C44.0716 187.244 45.3959 185.922 45.3959 184.292C45.3959 182.661 44.0716 181.34 42.438 181.34C40.8044 181.34 39.4801 182.661 39.4801 184.292C39.4801 185.922 40.8044 187.244 42.438 187.244Z" fill="#FF0000"/>
<path d="M40.6981 191.146C42.3317 191.146 43.656 189.825 43.656 188.195C43.656 186.564 42.3317 185.243 40.6981 185.243C39.0645 185.243 37.7402 186.564 37.7402 188.195C37.7402 189.825 39.0645 191.146 40.6981 191.146Z" fill="#FF0000"/>
<path d="M44.178 191.146C45.8116 191.146 47.1359 189.825 47.1359 188.195C47.1359 186.564 45.8116 185.243 44.178 185.243C42.5444 185.243 41.2201 186.564 41.2201 188.195C41.2201 189.825 42.5444 191.146 44.178 191.146Z" fill="#FF0000"/>
<path d="M42.2889 187.938C43.108 187.938 43.772 187.276 43.772 186.458C43.772 185.641 43.108 184.978 42.2889 184.978C41.4698 184.978 40.8058 185.641 40.8058 186.458C40.8058 187.276 41.4698 187.938 42.2889 187.938Z" fill="#FFF200"/>
<path d="M63.8642 186.549C66.1476 186.549 67.9986 184.702 67.9986 182.423C67.9986 180.144 66.1476 178.297 63.8642 178.297C61.5808 178.297 59.7297 180.144 59.7297 182.423C59.7297 184.702 61.5808 186.549 63.8642 186.549Z" fill="#009B54"/>
<path d="M46.8625 192.511C44.8326 192.511 43.1838 194.156 43.1838 196.182C43.1838 197.108 43.54 197.943 44.1034 198.588C43.8052 198.522 43.4986 198.481 43.1838 198.481C40.897 198.481 39.0493 200.325 39.0493 202.607C39.0493 204.889 40.897 206.733 43.1838 206.733C45.4705 206.733 47.3182 204.889 47.3182 202.607C47.3182 201.515 46.8873 200.523 46.1914 199.787C46.4068 199.829 46.6305 199.853 46.8625 199.853C48.8924 199.853 50.5412 198.208 50.5412 196.182C50.5412 194.156 48.8924 192.511 46.8625 192.511Z" fill="#008445"/>
<path d="M55.9765 188.525C58.0357 188.525 59.7049 186.86 59.7049 184.805C59.7049 182.75 58.0357 181.084 55.9765 181.084C53.9173 181.084 52.248 182.75 52.248 184.805C52.248 186.86 53.9173 188.525 55.9765 188.525Z" fill="#009B54"/>
<path d="M294.075 226.561H17.3415C13.4519 226.561 10.2988 229.708 10.2988 233.59C10.2988 237.471 13.4519 240.618 17.3415 240.618H294.075C297.965 240.618 301.118 237.471 301.118 233.59C301.118 229.708 297.965 226.561 294.075 226.561Z" fill="#C0D4ED"/>
<path d="M262.997 238.964H48.4201C44.9836 238.964 42.1978 241.744 42.1978 245.174V246.811C42.1978 250.241 44.9836 253.021 48.4201 253.021H262.997C266.433 253.021 269.219 250.241 269.219 246.811V245.174C269.219 241.744 266.433 238.964 262.997 238.964Z" fill="#C0D4ED"/>
<path d="M235.655 249.713H75.7621C72.7832 249.713 70.3683 252.123 70.3683 255.096V258.387C70.3683 261.36 72.7832 263.77 75.7621 263.77H235.655C238.634 263.77 241.049 261.36 241.049 258.387V255.096C241.049 252.123 238.634 249.713 235.655 249.713Z" fill="#C0D4ED"/>
<path d="M206.871 262.943H104.546C102.143 262.943 100.196 264.887 100.196 267.284V272.659C100.196 275.056 102.143 277 104.546 277H206.871C209.273 277 211.221 275.056 211.221 272.659V267.284C211.221 264.887 209.273 262.943 206.871 262.943Z" fill="#C0D4ED"/>
<path d="M200.251 226.561H110.453C108.71 226.561 107.297 227.972 107.297 229.712V231.944C107.297 233.684 108.71 235.094 110.453 235.094H200.251C201.994 235.094 203.408 233.684 203.408 231.944V229.712C203.408 227.972 201.994 226.561 200.251 226.561Z" fill="#FFB763"/>
<path d="M182.694 235.094H128.01C126.637 235.094 125.525 236.205 125.525 237.575V241.147C125.525 242.517 126.637 243.628 128.01 243.628H182.694C184.067 243.628 185.18 242.517 185.18 241.147V237.575C185.18 236.205 184.067 235.094 182.694 235.094Z" fill="#FFB763"/>
<path d="M172.702 248.622H138.002C136.895 248.622 135.997 249.518 135.997 250.623V255.154C135.997 256.259 136.895 257.155 138.002 257.155H172.702C173.809 257.155 174.707 256.259 174.707 255.154V250.623C174.707 249.518 173.809 248.622 172.702 248.622Z" fill="#FFB763"/>
</g>
<defs>
<clipPath id="clip0_209_364">
<rect width="310" height="277" fill="white"/>
</clipPath>
</defs>
</svg>
