<svg width="45" height="45" viewBox="0 0 45 45" fill="none" xmlns="http://www.w3.org/2000/svg">
<g clip-path="url(#clip0_335_127)">
<path d="M22.7387 23.3731C28.5177 23.3731 33.2025 18.1409 33.2025 11.6866C33.2025 5.23225 28.5177 0 22.7387 0C16.9598 0 12.275 5.23225 12.275 11.6866C12.275 18.1409 16.9598 23.3731 22.7387 23.3731Z" fill="#FF0000"/>
<path d="M22.6678 10.9317C21.9534 10.9317 21.263 10.8497 20.6087 10.6979C19.8811 10.5287 19.1402 10.9008 18.7698 11.6194L8.09558 32.2697H29.1325L24.0534 10.8269C23.6047 10.8954 23.1417 10.9317 22.669 10.9317H22.6678Z" fill="#009658"/>
<path d="M26.5658 11.6195C26.1942 10.9008 25.4533 10.5301 24.7269 10.698C24.5068 10.749 24.2806 10.792 24.0521 10.8269L29.1312 32.2698H37.2412L26.567 11.6195H26.5658Z" fill="#19A35A"/>
<path d="M24.7581 9.37476H20.296V10.9316H24.7581V9.37476Z" fill="#8DC1FF"/>
<path d="M29.2274 15.6035L26.8424 10.5098C26.466 9.70514 25.9272 9.0832 24.9409 9.35051C24.8519 9.34648 24.4646 9.56678 24.3672 9.65275C23.0635 10.8026 21.548 10.3405 20.9948 9.62991C20.8901 9.49558 20.6833 9.21484 20.5414 9.1329C19.8197 8.71782 18.9008 9.33842 18.4679 10.1645L15.6487 15.543C15.188 16.4216 15.2518 17.5593 15.8772 18.3008C16.1249 18.5936 16.4124 18.7656 16.7107 18.8636C16.7395 18.8744 16.7732 18.8851 16.8129 18.8959C16.8153 18.8959 16.8189 18.8972 16.8213 18.8986C17.3662 19.0598 18.8022 19.2814 20.7867 18.0563C21.1139 17.8535 21.4867 17.746 21.8607 17.7608C22.2456 17.7756 22.6305 17.9207 22.6293 18.4419L22.6245 19.268C22.6185 20.4125 23.3738 21.4253 24.3949 21.526C25.416 21.6268 26.3445 20.7993 26.4973 19.6911L26.5009 19.7019C26.5009 19.7019 26.5009 19.6884 26.5009 19.6683C26.5069 19.6172 26.5117 19.5662 26.5153 19.5138C26.5586 19.2492 26.7342 18.7978 27.4197 18.7844C27.7505 18.8005 28.0885 18.7239 28.4036 18.5399C29.3573 17.9825 29.7266 16.6674 29.2274 15.6022V15.6035Z" fill="white"/>
<path d="M6.98305 32.5076H3.85596V35.7314H6.98305V32.5076Z" fill="#00BC5E"/>
<path d="M4.36471 32.2388H41.713C41.9944 32.2388 42.2217 32.494 42.2217 32.807V35.8656H3.85596V32.807C3.85596 32.4926 4.08447 32.2388 4.36471 32.2388Z" fill="#00D16D"/>
<path d="M6.40331 33.0622C6.40331 32.8002 6.53922 32.5759 6.73527 32.4658C6.69558 32.3758 6.67032 32.2764 6.67032 32.1689C6.67032 31.9996 6.72805 31.8465 6.82186 31.7283C6.81104 31.6786 6.80382 31.6262 6.80382 31.5725C6.80382 31.2017 7.07203 30.9022 7.40398 30.9022C7.5447 30.9022 7.67219 30.9586 7.77442 31.0486C7.85741 30.7893 8.07751 30.604 8.3373 30.604C8.46479 30.604 8.58265 30.6496 8.68007 30.7249C8.72458 30.4038 8.97114 30.1567 9.27061 30.1567C9.60257 30.1567 9.87077 30.4562 9.87077 30.827C9.87077 31.0231 9.7938 31.1977 9.67353 31.3199C9.99947 31.4314 10.2761 31.6155 10.4745 31.8452C10.8221 31.6974 11.0699 31.3253 11.0699 30.8847C11.0699 30.381 10.7464 29.9619 10.3182 29.8732C10.2857 29.841 10.2532 29.8101 10.2184 29.7792C10.2184 29.7792 10.2184 29.7765 10.2184 29.7752C10.2184 29.2056 9.80583 28.7449 9.29587 28.7449C9.0457 28.7449 8.81959 28.8564 8.65361 29.0364C8.62475 29.0296 8.59709 29.0229 8.56822 29.0176C8.42029 28.6696 8.10277 28.4279 7.73473 28.4279C7.40519 28.4279 7.11773 28.6213 6.95416 28.9114C6.79059 28.6213 6.50314 28.4279 6.17359 28.4279C5.94508 28.4279 5.737 28.5205 5.57584 28.6737C5.42309 28.3392 5.11279 28.1108 4.75438 28.1108C4.24442 28.1108 3.83189 28.5716 3.83189 29.1411C3.83189 29.1976 3.8367 29.2526 3.84512 29.3064C3.73206 29.2513 3.60818 29.2204 3.47708 29.2204C3.11867 29.2204 2.80837 29.4501 2.65562 29.7832C2.49445 29.6301 2.28638 29.5374 2.05786 29.5374C1.57076 29.5374 1.17386 29.9592 1.13898 30.4925C0.661499 30.5314 0.283843 30.9761 0.283843 31.5187C0.283843 31.911 0.479888 32.2522 0.768542 32.4255C0.731258 32.5383 0.709608 32.6592 0.709608 32.7868C0.709608 32.8231 0.710811 32.858 0.714419 32.8929C0.305492 32.999 0 33.4074 0 33.8964C0 34.4659 0.412535 34.9267 0.922491 34.9267C1.17025 34.9267 1.39516 34.8165 1.56114 34.6392C1.65255 34.7373 1.7632 34.8152 1.88467 34.8649C1.85821 34.9602 1.84498 35.061 1.84498 35.1658C1.84498 35.7353 2.25752 36.1961 2.76747 36.1961C2.92623 36.1961 3.07657 36.1504 3.20767 36.0711C3.3532 36.4244 3.67313 36.6716 4.04477 36.6716C4.47775 36.6716 4.83977 36.3385 4.9396 35.8885C4.94922 35.8844 4.95884 35.879 4.96846 35.875C5.11159 35.9771 5.28117 36.0376 5.46399 36.0376C5.97394 36.0376 6.38648 35.5768 6.38648 35.0073C6.38648 34.9186 6.37565 34.8313 6.35641 34.7493C6.77856 34.6553 7.09608 34.2389 7.09608 33.7392C7.09608 33.7338 7.09608 33.7285 7.09608 33.7217C7.06602 33.7271 7.03475 33.7325 7.00347 33.7325C6.67152 33.7325 6.40331 33.4329 6.40331 33.0622Z" fill="#009B54"/>
<path d="M10.4758 31.8452C10.2773 31.6155 9.99952 31.4315 9.67478 31.32C9.79505 31.1978 9.87203 31.0232 9.87203 30.827C9.87203 30.4563 9.60382 30.1567 9.27187 30.1567C8.97118 30.1567 8.72583 30.4039 8.68133 30.7249C8.58391 30.6497 8.46604 30.6041 8.33855 30.6041C8.07876 30.6041 7.85866 30.7908 7.77567 31.0487C7.67344 30.9587 7.54595 30.9023 7.40523 30.9023C7.07328 30.9023 6.80507 31.2018 6.80507 31.5726C6.80507 31.6263 6.81229 31.6773 6.82312 31.7284C6.73051 31.8466 6.67157 31.9997 6.67157 32.169C6.67157 32.2764 6.69683 32.3758 6.73652 32.4658C6.54047 32.576 6.40457 32.8003 6.40457 33.0623C6.40457 33.2114 6.44907 33.347 6.52243 33.4585C6.26385 33.5324 6.07141 33.793 6.07141 34.106C6.07141 34.4767 6.33962 34.7763 6.67157 34.7763C7.00352 34.7763 7.27173 34.4767 7.27173 34.106C7.27173 34.067 7.26692 34.0281 7.26091 33.9905C7.46176 33.9045 7.60489 33.6896 7.60489 33.4357C7.60489 33.4021 7.60128 33.3685 7.59647 33.3363C7.73358 33.7124 8.06192 33.9784 8.448 33.9784C8.9351 33.9784 9.3332 33.5566 9.36688 33.0233C9.39094 33.026 9.41619 33.0273 9.44145 33.0273C9.95141 33.0273 10.3639 32.5666 10.3639 31.997C10.3639 31.9608 10.3627 31.9258 10.3591 31.8909C10.4 31.8802 10.4397 31.8641 10.4782 31.8479L10.4758 31.8452Z" fill="#008445"/>
<path d="M42.2229 35.7314H3.85596V37.0747H42.2229V35.7314Z" fill="#009E56"/>
<path d="M11.9142 32.2387H10.3507C9.48233 30.1956 8.66448 27.8005 8.17737 24.2583C7.88992 22.1695 7.83219 20.2875 7.87789 18.7025L8.69815 18.4875C8.78355 20.1384 8.982 22.0284 9.37769 24.0877C10.0224 27.4419 11.0002 30.1164 11.9142 32.2401V32.2387Z" fill="#BCB37D"/>
<path d="M8.51051 18.6394C8.51051 18.6394 3.56611 18.5723 3.89565 24.6063L8.51051 18.6394Z" fill="#009B54"/>
<path d="M8.55383 18.7671C8.55383 18.7671 6.10749 13.9675 1.61169 17.3338L8.55383 18.7671Z" fill="#00C472"/>
<path d="M7.71787 19.1176C7.71787 19.1176 7.2428 13.6209 12.6539 13.4812L7.71787 19.1176Z" fill="#00C472"/>
<path d="M7.9187 18.6636C7.9187 18.6636 10.0992 13.7069 14.7694 16.7629L7.9187 18.6636Z" fill="#009B54"/>
<path d="M7.51819 18.3693C7.51819 18.3693 12.2136 16.6378 13.5306 22.5013L7.51819 18.3693Z" fill="#00C472"/>
<path d="M8.9363 21.2923C9.4677 21.2923 9.89848 20.8112 9.89848 20.2177C9.89848 19.6242 9.4677 19.1431 8.9363 19.1431C8.4049 19.1431 7.97412 19.6242 7.97412 20.2177C7.97412 20.8112 8.4049 21.2923 8.9363 21.2923Z" fill="#FFBF40"/>
<path d="M7.4136 21.6912C7.94499 21.6912 8.37578 21.2101 8.37578 20.6166C8.37578 20.0231 7.94499 19.542 7.4136 19.542C6.8822 19.542 6.45142 20.0231 6.45142 20.6166C6.45142 21.2101 6.8822 21.6912 7.4136 21.6912Z" fill="#F7DD43"/>
<path d="M8.0414 20.5604C8.5728 20.5604 9.00359 20.0793 9.00359 19.4858C9.00359 18.8923 8.5728 18.4111 8.0414 18.4111C7.51001 18.4111 7.07922 18.8923 7.07922 19.4858C7.07922 20.0793 7.51001 20.5604 8.0414 20.5604Z" fill="#FFEA52"/>
<path d="M37.7632 32.5825H39.2072C39.5618 30.7517 39.6126 28.239 39.4064 25.2792C39.2849 23.534 39.014 22.0057 38.7093 20.7366H38.0121C38.2223 22.0858 38.3816 23.6508 38.4105 25.3949C38.4573 28.2346 38.1416 30.6783 37.7632 32.5825Z" fill="#BCB37D"/>
<path d="M38.1884 20.8199C38.1884 20.8199 42.1631 19.7243 42.917 24.6585L38.1884 20.8199Z" fill="#009B54"/>
<path d="M38.1754 20.9322C38.1754 20.9322 39.3366 16.5476 43.5304 18.3139L38.1754 20.9322Z" fill="#00C472"/>
<path d="M38.9084 21.038C38.9084 21.038 38.3627 16.5065 33.9767 17.5343L38.9084 21.038Z" fill="#00C472"/>
<path d="M38.6694 20.7142C38.6694 20.7142 36.0741 17.1782 32.8244 20.6252L38.6694 20.7142Z" fill="#009B54"/>
<path d="M38.9432 20.3929C38.9432 20.3929 34.865 19.9869 34.7943 24.9912L38.9432 20.3929Z" fill="#00C472"/>
<path d="M38.1117 23.0724C37.6717 23.0724 37.315 22.674 37.315 22.1826C37.315 21.6911 37.6717 21.2927 38.1117 21.2927C38.5517 21.2927 38.9084 21.6911 38.9084 22.1826C38.9084 22.674 38.5517 23.0724 38.1117 23.0724Z" fill="#FFBF40"/>
<path d="M39.4064 23.0724C38.9664 23.0724 38.6097 22.674 38.6097 22.1826C38.6097 21.6911 38.9664 21.2927 39.4064 21.2927C39.8464 21.2927 40.2031 21.6911 40.2031 22.1826C40.2031 22.674 39.8464 23.0724 39.4064 23.0724Z" fill="#F7DD43"/>
<path d="M38.7091 22.2938C38.2691 22.2938 37.9124 21.8954 37.9124 21.404C37.9124 20.9126 38.2691 20.5142 38.7091 20.5142C39.1492 20.5142 39.5059 20.9126 39.5059 21.404C39.5059 21.8954 39.1492 22.2938 38.7091 22.2938Z" fill="#FFEA52"/>
<path d="M32.3837 33.14H34.1276C34.5558 30.9289 34.6171 27.8944 34.3682 24.32C34.2214 22.2123 33.8943 20.3667 33.5263 18.834H32.6843C32.9381 20.4634 33.1306 22.3534 33.1654 24.4597C33.222 27.8891 32.8407 30.8403 32.3837 33.14Z" fill="#DDD7AC"/>
<path d="M32.8972 18.9347C32.8972 18.9347 37.6973 17.6116 38.6078 23.5704L32.8972 18.9347Z" fill="#009B54"/>
<path d="M32.8816 19.0704C32.8816 19.0704 34.284 13.7752 39.3486 15.9083L32.8816 19.0704Z" fill="#00C472"/>
<path d="M33.7668 19.198C33.7668 19.198 33.1077 13.7254 27.8109 14.9666L33.7668 19.198Z" fill="#00C472"/>
<path d="M33.4781 18.8071C33.4781 18.8071 30.3438 14.5368 26.4193 18.6996L33.4781 18.8071Z" fill="#009B54"/>
<path d="M33.8089 18.419C33.8089 18.419 28.8837 17.9287 28.7983 23.9721L33.8089 18.419Z" fill="#00C472"/>
<path d="M32.8046 21.6549C33.336 21.6549 33.7668 21.1737 33.7668 20.5802C33.7668 19.9867 33.336 19.5056 32.8046 19.5056C32.2732 19.5056 31.8424 19.9867 31.8424 20.5802C31.8424 21.1737 32.2732 21.6549 32.8046 21.6549Z" fill="#FFBF40"/>
<path d="M34.3682 21.6549C34.8996 21.6549 35.3304 21.1737 35.3304 20.5802C35.3304 19.9867 34.8996 19.5056 34.3682 19.5056C33.8368 19.5056 33.406 19.9867 33.406 20.5802C33.406 21.1737 33.8368 21.6549 34.3682 21.6549Z" fill="#F7DD43"/>
<path d="M33.5263 20.7144C34.0577 20.7144 34.4884 20.2333 34.4884 19.6398C34.4884 19.0463 34.0577 18.5652 33.5263 18.5652C32.9949 18.5652 32.5641 19.0463 32.5641 19.6398C32.5641 20.2333 32.9949 20.7144 33.5263 20.7144Z" fill="#FFEA52"/>
<path d="M42.2229 32.2388H26.9482V35.7313H42.2229V32.2388Z" fill="#3AD679"/>
<path d="M21.1425 26.3374H25.0169C26.626 26.3374 27.9332 27.7959 27.9332 29.5945V32.1876H18.2275V29.5945C18.2275 27.7974 19.5334 26.3374 21.1438 26.3374H21.1425Z" fill="#B2B2B2"/>
<path d="M19.3025 22.7798H19.4377C19.5361 22.7798 19.6149 22.8692 19.6149 22.9777V25.2014C19.6149 25.3113 19.5348 25.3993 19.4377 25.3993H19.3025C18.8471 25.3993 18.4783 24.9874 18.4783 24.4787V23.7003C18.4783 23.1917 18.8471 22.7798 19.3025 22.7798Z" fill="#B2B2B2"/>
<path d="M27.0342 25.3979H26.899C26.8005 25.3979 26.7218 25.3085 26.7218 25.2001V22.9764C26.7218 22.8664 26.8019 22.7785 26.899 22.7785H27.0342C27.4896 22.7785 27.8584 23.1904 27.8584 23.699V24.4774C27.8584 24.986 27.4896 25.3979 27.0342 25.3979Z" fill="#B2B2B2"/>
<path d="M21.5113 17.3826H24.6822C25.8858 17.3826 26.8636 18.4746 26.8636 19.8188V20.002H19.3313V19.8188C19.3313 18.4746 20.3091 17.3826 21.5126 17.3826H21.5113Z" fill="#C6C6C6"/>
<path d="M19.1882 21.6687H26.8622V24.6048C26.8622 25.6573 26.0971 26.5104 25.156 26.5104H20.8944C19.9521 26.5104 19.1882 25.6558 19.1882 24.6048V21.6687Z" fill="#C6C6C6"/>
<path d="M22.2936 23.0084C22.411 23.0084 22.5062 22.9021 22.5062 22.7709C22.5062 22.6398 22.411 22.5334 22.2936 22.5334C22.1761 22.5334 22.0809 22.6398 22.0809 22.7709C22.0809 22.9021 22.1761 23.0084 22.2936 23.0084Z" fill="black"/>
<path d="M23.7859 23.0084C23.9033 23.0084 23.9985 22.9021 23.9985 22.7709C23.9985 22.6398 23.9033 22.5334 23.7859 22.5334C23.6684 22.5334 23.5732 22.6398 23.5732 22.7709C23.5732 22.9021 23.6684 23.0084 23.7859 23.0084Z" fill="black"/>
<path d="M23.0522 23.6888C22.8055 23.6888 22.6309 23.3824 22.623 23.3692L22.7438 23.2856C22.7819 23.3545 22.9131 23.5304 23.0522 23.5304C23.148 23.5304 23.2425 23.4484 23.3331 23.2856L23.4538 23.3692C23.3357 23.5817 23.1992 23.6888 23.0509 23.6888H23.0522Z" fill="black"/>
<path d="M25.2073 23.4057C25.266 23.4057 25.3136 23.3525 25.3136 23.2869C25.3136 23.2214 25.266 23.1682 25.2073 23.1682C25.1485 23.1682 25.101 23.2214 25.101 23.2869C25.101 23.3525 25.1485 23.4057 25.2073 23.4057Z" fill="#878787"/>
<path d="M24.8869 23.8822C24.9457 23.8822 24.9933 23.8291 24.9933 23.7635C24.9933 23.6979 24.9457 23.6448 24.8869 23.6448C24.8282 23.6448 24.7806 23.6979 24.7806 23.7635C24.7806 23.8291 24.8282 23.8822 24.8869 23.8822Z" fill="#878787"/>
<path d="M25.5261 23.8822C25.5848 23.8822 25.6324 23.8291 25.6324 23.7635C25.6324 23.6979 25.5848 23.6448 25.5261 23.6448C25.4674 23.6448 25.4198 23.6979 25.4198 23.7635C25.4198 23.8291 25.4674 23.8822 25.5261 23.8822Z" fill="#878787"/>
<path d="M20.8722 23.4057C20.9309 23.4057 20.9785 23.3525 20.9785 23.2869C20.9785 23.2214 20.9309 23.1682 20.8722 23.1682C20.8135 23.1682 20.7659 23.2214 20.7659 23.2869C20.7659 23.3525 20.8135 23.4057 20.8722 23.4057Z" fill="#878787"/>
<path d="M20.5519 23.8822C20.6106 23.8822 20.6582 23.8291 20.6582 23.7635C20.6582 23.6979 20.6106 23.6448 20.5519 23.6448C20.4932 23.6448 20.4456 23.6979 20.4456 23.7635C20.4456 23.8291 20.4932 23.8822 20.5519 23.8822Z" fill="#878787"/>
<path d="M21.1924 23.8822C21.2511 23.8822 21.2987 23.8291 21.2987 23.7635C21.2987 23.6979 21.2511 23.6448 21.1924 23.6448C21.1337 23.6448 21.0861 23.6979 21.0861 23.7635C21.0861 23.8291 21.1337 23.8822 21.1924 23.8822Z" fill="#878787"/>
<path d="M27.3217 19.7632H19.0151C18.7186 19.7632 18.4783 20.0316 18.4783 20.3627V21.3859C18.4783 21.717 18.7186 21.9854 19.0151 21.9854H27.3217C27.6182 21.9854 27.8585 21.717 27.8585 21.3859V20.3627C27.8585 20.0316 27.6182 19.7632 27.3217 19.7632Z" fill="#D8D8D8"/>
<path d="M18.8339 24.0889H19.1882" stroke="#878787" stroke-width="3" stroke-miterlimit="10"/>
<path d="M26.8635 24.0098H27.2179" stroke="#878787" stroke-width="3" stroke-miterlimit="10"/>
<path d="M3.98582 33.2784C3.96899 33.4329 3.83308 33.5404 3.83308 33.5404C3.83308 33.5404 3.72483 33.398 3.74287 33.2449C3.76091 33.0917 3.89562 32.9829 3.89562 32.9829C3.89562 32.9829 4.00386 33.1253 3.98582 33.2784Z" fill="#16AD00"/>
<path d="M4.03389 33.3792C3.89557 33.3604 3.76929 33.48 3.76929 33.48C3.76929 33.48 3.86551 33.6317 4.00382 33.6505C4.14213 33.6694 4.26842 33.5498 4.26842 33.5498C4.26842 33.5498 4.1722 33.398 4.03389 33.3792Z" fill="#16AD00"/>
<path d="M3.84631 33.4907C3.84631 33.4907 4.02672 33.4612 4.14579 33.5377" stroke="#1FCE00" stroke-width="3" stroke-miterlimit="10"/>
<path d="M3.06219 34.1932C3.29932 34.1932 3.49156 33.9785 3.49156 33.7137C3.49156 33.4488 3.29932 33.2341 3.06219 33.2341C2.82505 33.2341 2.63281 33.4488 2.63281 33.7137C2.63281 33.9785 2.82505 34.1932 3.06219 34.1932Z" fill="#FF0000"/>
<path d="M3.6563 34.2093C3.89344 34.2093 4.08568 33.9946 4.08568 33.7298C4.08568 33.4649 3.89344 33.2502 3.6563 33.2502C3.41917 33.2502 3.22693 33.4649 3.22693 33.7298C3.22693 33.9946 3.41917 34.2093 3.6563 34.2093Z" fill="#FF0000"/>
<path d="M3.35918 33.9945C3.59632 33.9945 3.78856 33.7798 3.78856 33.515C3.78856 33.2501 3.59632 33.0354 3.35918 33.0354C3.12205 33.0354 2.92981 33.2501 2.92981 33.515C2.92981 33.7798 3.12205 33.9945 3.35918 33.9945Z" fill="#FF0000"/>
<path d="M3.10662 34.6285C3.34376 34.6285 3.53599 34.4138 3.53599 34.149C3.53599 33.8841 3.34376 33.6694 3.10662 33.6694C2.86948 33.6694 2.67725 33.8841 2.67725 34.149C2.67725 34.4138 2.86948 34.6285 3.10662 34.6285Z" fill="#FF0000"/>
<path d="M3.61175 34.6285C3.84888 34.6285 4.04112 34.4138 4.04112 34.149C4.04112 33.8841 3.84888 33.6694 3.61175 33.6694C3.37461 33.6694 3.18237 33.8841 3.18237 34.149C3.18237 34.4138 3.37461 34.6285 3.61175 34.6285Z" fill="#FF0000"/>
<path d="M3.3376 34.1059C3.4565 34.1059 3.55289 33.9982 3.55289 33.8654C3.55289 33.7327 3.4565 33.625 3.3376 33.625C3.2187 33.625 3.12231 33.7327 3.12231 33.8654C3.12231 33.9982 3.2187 34.1059 3.3376 34.1059Z" fill="#FFF200"/>
<path d="M2.41628 29.3629C2.5546 29.3737 2.65803 29.5201 2.65803 29.5201C2.65803 29.5201 2.53656 29.6477 2.39824 29.637C2.25993 29.6262 2.15649 29.4798 2.15649 29.4798C2.15649 29.4798 2.27797 29.3522 2.41628 29.3629Z" fill="#16AD00"/>
<path d="M2.50412 29.3037C2.49449 29.4582 2.60875 29.5938 2.60875 29.5938C2.60875 29.5938 2.73865 29.4783 2.74947 29.3238C2.7603 29.1694 2.64483 29.0337 2.64483 29.0337C2.64483 29.0337 2.51494 29.1492 2.50412 29.3037Z" fill="#16AD00"/>
<path d="M2.61467 29.5065C2.61467 29.5065 2.57859 29.3077 2.63993 29.1707" stroke="#1FCE00" stroke-width="3" stroke-miterlimit="10"/>
<path d="M2.85528 30.8497C3.09241 30.8497 3.28465 30.635 3.28465 30.3702C3.28465 30.1053 3.09241 29.8906 2.85528 29.8906C2.61814 29.8906 2.4259 30.1053 2.4259 30.3702C2.4259 30.635 2.61814 30.8497 2.85528 30.8497Z" fill="#FF0000"/>
<path d="M2.83843 30.1849C3.07557 30.1849 3.2678 29.9702 3.2678 29.7054C3.2678 29.4405 3.07557 29.2258 2.83843 29.2258C2.60129 29.2258 2.40906 29.4405 2.40906 29.7054C2.40906 29.9702 2.60129 30.1849 2.83843 30.1849Z" fill="#FF0000"/>
<path d="M2.66167 30.5289C2.89881 30.5289 3.09105 30.3142 3.09105 30.0494C3.09105 29.7845 2.89881 29.5698 2.66167 29.5698C2.42454 29.5698 2.2323 29.7845 2.2323 30.0494C2.2323 30.3142 2.42454 30.5289 2.66167 30.5289Z" fill="#FF0000"/>
<path d="M3.24139 30.776C3.47852 30.776 3.67076 30.5613 3.67076 30.2964C3.67076 30.0316 3.47852 29.8169 3.24139 29.8169C3.00425 29.8169 2.81201 30.0316 2.81201 30.2964C2.81201 30.5613 3.00425 30.776 3.24139 30.776Z" fill="#FF0000"/>
<path d="M3.2149 30.2133C3.45203 30.2133 3.64427 29.9986 3.64427 29.7337C3.64427 29.4689 3.45203 29.2542 3.2149 29.2542C2.97776 29.2542 2.78552 29.4689 2.78552 29.7337C2.78552 29.9986 2.97776 30.2133 3.2149 30.2133Z" fill="#FF0000"/>
<path d="M2.97676 30.2936C3.09566 30.2936 3.19205 30.186 3.19205 30.0532C3.19205 29.9204 3.09566 29.8127 2.97676 29.8127C2.85786 29.8127 2.76147 29.9204 2.76147 30.0532C2.76147 30.186 2.85786 30.2936 2.97676 30.2936Z" fill="#FFF200"/>
<path d="M6.78697 29.7027C6.77013 29.8572 6.63422 29.9647 6.63422 29.9647C6.63422 29.9647 6.52598 29.8223 6.54402 29.6692C6.56206 29.516 6.69677 29.4072 6.69677 29.4072C6.69677 29.4072 6.80501 29.5496 6.78697 29.7027Z" fill="#16AD00"/>
<path d="M6.83503 29.8035C6.69672 29.7847 6.57043 29.9043 6.57043 29.9043C6.57043 29.9043 6.66665 30.0561 6.80497 30.0749C6.94328 30.0937 7.06957 29.9741 7.06957 29.9741C7.06957 29.9741 6.97335 29.8223 6.83503 29.8035Z" fill="#16AD00"/>
<path d="M6.64868 29.9163C6.64868 29.9163 6.82909 29.8867 6.94816 29.9633" stroke="#1FCE00" stroke-width="3" stroke-miterlimit="10"/>
<path d="M5.86333 30.6176C6.10047 30.6176 6.29271 30.4028 6.29271 30.138C6.29271 29.8732 6.10047 29.6584 5.86333 29.6584C5.6262 29.6584 5.43396 29.8732 5.43396 30.138C5.43396 30.4028 5.6262 30.6176 5.86333 30.6176Z" fill="#FF0000"/>
<path d="M6.45745 30.6337C6.69459 30.6337 6.88682 30.419 6.88682 30.1541C6.88682 29.8893 6.69459 29.6746 6.45745 29.6746C6.22031 29.6746 6.02808 29.8893 6.02808 30.1541C6.02808 30.419 6.22031 30.6337 6.45745 30.6337Z" fill="#FF0000"/>
<path d="M6.16033 30.4186C6.39747 30.4186 6.5897 30.2039 6.5897 29.939C6.5897 29.6742 6.39747 29.4595 6.16033 29.4595C5.92319 29.4595 5.73096 29.6742 5.73096 29.939C5.73096 30.2039 5.92319 30.4186 6.16033 30.4186Z" fill="#FF0000"/>
<path d="M5.90777 31.0526C6.1449 31.0526 6.33714 30.8379 6.33714 30.5731C6.33714 30.3082 6.1449 30.0935 5.90777 30.0935C5.67063 30.0935 5.47839 30.3082 5.47839 30.5731C5.47839 30.8379 5.67063 31.0526 5.90777 31.0526Z" fill="#FF0000"/>
<path d="M6.41289 31.0526C6.65003 31.0526 6.84227 30.8379 6.84227 30.5731C6.84227 30.3082 6.65003 30.0935 6.41289 30.0935C6.17576 30.0935 5.98352 30.3082 5.98352 30.5731C5.98352 30.8379 6.17576 31.0526 6.41289 31.0526Z" fill="#FF0000"/>
<path d="M6.13875 30.5314C6.25765 30.5314 6.35404 30.4238 6.35404 30.291C6.35404 30.1582 6.25765 30.0505 6.13875 30.0505C6.01985 30.0505 5.92346 30.1582 5.92346 30.291C5.92346 30.4238 6.01985 30.5314 6.13875 30.5314Z" fill="#FFF200"/>
<path d="M9.27057 30.3059C9.60203 30.3059 9.87073 30.0058 9.87073 29.6356C9.87073 29.2654 9.60203 28.9653 9.27057 28.9653C8.93911 28.9653 8.67041 29.2654 8.67041 29.6356C8.67041 30.0058 8.93911 30.3059 9.27057 30.3059Z" fill="#009B54"/>
<path d="M6.80263 31.2744C6.50796 31.2744 6.26862 31.5417 6.26862 31.8708C6.26862 32.0213 6.32033 32.157 6.40212 32.2617C6.35882 32.251 6.31432 32.2443 6.26862 32.2443C5.93666 32.2443 5.66846 32.5438 5.66846 32.9146C5.66846 33.2853 5.93666 33.5849 6.26862 33.5849C6.60057 33.5849 6.86878 33.2853 6.86878 32.9146C6.86878 32.7372 6.80624 32.5761 6.70521 32.4565C6.73648 32.4632 6.76895 32.4672 6.80263 32.4672C7.0973 32.4672 7.33664 32.1999 7.33664 31.8708C7.33664 31.5417 7.0973 31.2744 6.80263 31.2744Z" fill="#008445"/>
<path d="M8.12558 30.6269C8.42449 30.6269 8.6668 30.3563 8.6668 30.0224C8.6668 29.6886 8.42449 29.418 8.12558 29.418C7.82667 29.418 7.58435 29.6886 7.58435 30.0224C7.58435 30.3563 7.82667 30.6269 8.12558 30.6269Z" fill="#009B54"/>
<path d="M42.6884 36.8059H2.51731C1.9527 36.8059 1.495 37.3171 1.495 37.9477C1.495 38.5783 1.9527 39.0895 2.51731 39.0895H42.6884C43.253 39.0895 43.7107 38.5783 43.7107 37.9477C43.7107 37.3171 43.253 36.8059 42.6884 36.8059Z" fill="#C0D4ED"/>
<path d="M38.1769 38.8208H7.02874C6.52989 38.8208 6.12549 39.2725 6.12549 39.8296V40.0956C6.12549 40.6527 6.52989 41.1044 7.02874 41.1044H38.1769C38.6758 41.1044 39.0802 40.6527 39.0802 40.0956V39.8296C39.0802 39.2725 38.6758 38.8208 38.1769 38.8208Z" fill="#C0D4ED"/>
<path d="M34.2079 40.5671H10.9977C10.5653 40.5671 10.2147 40.9587 10.2147 41.4416V41.9762C10.2147 42.4592 10.5653 42.8507 10.9977 42.8507H34.2079C34.6403 42.8507 34.9909 42.4592 34.9909 41.9762V41.4416C34.9909 40.9587 34.6403 40.5671 34.2079 40.5671Z" fill="#C0D4ED"/>
<path d="M30.0297 42.7163H15.176C14.8273 42.7163 14.5446 43.032 14.5446 43.4215V44.2947C14.5446 44.6842 14.8273 44.9999 15.176 44.9999H30.0297C30.3784 44.9999 30.6611 44.6842 30.6611 44.2947V43.4215C30.6611 43.032 30.3784 42.7163 30.0297 42.7163Z" fill="#C0D4ED"/>
<path d="M29.0687 36.8059H16.0336C15.7805 36.8059 15.5753 37.035 15.5753 37.3177V37.6804C15.5753 37.963 15.7805 38.1922 16.0336 38.1922H29.0687C29.3218 38.1922 29.5269 37.963 29.5269 37.6804V37.3177C29.5269 37.035 29.3218 36.8059 29.0687 36.8059Z" fill="#FFB763"/>
<path d="M26.5201 38.1921H18.5821C18.3829 38.1921 18.2213 38.3726 18.2213 38.5951V39.1754C18.2213 39.398 18.3829 39.5784 18.5821 39.5784H26.5201C26.7194 39.5784 26.8809 39.398 26.8809 39.1754V38.5951C26.8809 38.3726 26.7194 38.1921 26.5201 38.1921Z" fill="#FFB763"/>
<path d="M25.0697 40.3899H20.0326C19.8719 40.3899 19.7416 40.5354 19.7416 40.715V41.4511C19.7416 41.6306 19.8719 41.7762 20.0326 41.7762H25.0697C25.2304 41.7762 25.3607 41.6306 25.3607 41.4511V40.715C25.3607 40.5354 25.2304 40.3899 25.0697 40.3899Z" fill="#FFB763"/>
</g>
<defs>
<clipPath id="clip0_335_127">
<rect width="45" height="45" fill="white"/>
</clipPath>
</defs>
</svg>
